<svg id="Layer_1" data-name="Layer 1" xmlns="http://www.w3.org/2000/svg" viewBox="0 0 500.1 106.1">
  <defs>
    <style>
      .cls-1 {
        fill: #b51200;
      }

      .cls-2 {
        fill: #fff;
      }
    </style>
  </defs>
  <title>abbox.id logo</title>
  <g>
    <g>
      <path d="M392.1,543.7H356.9c-6,0-10.8-1.7-14.3-5s-5.3-8.5-5.3-15.5v-6.8a24.9,24.9,0,0,1,2.7-11.9,28.4,28.4,0,0,1,6.7-8.5,26.1,26.1,0,0,1,8.6-5.1,25.3,25.3,0,0,1,8.5-1.6h7.3v-4c0-2-.5-3.1-1.6-3.4a11.1,11.1,0,0,0-2.8-.5H338.2V463.7h36.4c6.7,0,11.2,1.7,13.8,5.1s3.7,7.8,3.7,13.4Zm-21-39.8h-1.3a19.1,19.1,0,0,0-5.4.8,12.1,12.1,0,0,0-3.6,1.7,8.5,8.5,0,0,0-2.9,4.2,21.1,21.1,0,0,0-.9,5.6v5l-7.2,4h21.3Z" transform="translate(-161.5 -437.6)"/>
      <path d="M439.1,463.7a21.6,21.6,0,0,1,6.6,1,18.3,18.3,0,0,1,6.4,3.2,18,18,0,0,1,4.7,6.3,22,22,0,0,1,1.9,9.8v39.2a30.8,30.8,0,0,1-.9,7.2,16.9,16.9,0,0,1-3.2,6.6,18.2,18.2,0,0,1-6,4.8,22,22,0,0,1-9.5,1.9H403.2V437.9h21v25.8Zm-.1,22.4a5.2,5.2,0,0,0-1.3-3.6c-.9-1-2.4-1.5-4.7-1.5h-8.8v39.7l-8.3,4.5H433c2.5,0,4.1-.5,4.8-1.6a5.9,5.9,0,0,0,1.2-3.4Z" transform="translate(-161.5 -437.6)"/>
      <path d="M506.2,463.7a22.5,22.5,0,0,1,6.6,1,18.8,18.8,0,0,1,6.3,3.2,19.5,19.5,0,0,1,4.8,6.3,23.4,23.4,0,0,1,1.9,9.8v39.2a31.2,31.2,0,0,1-1,7.2,16.9,16.9,0,0,1-3.2,6.6,18.2,18.2,0,0,1-6,4.8,21.8,21.8,0,0,1-9.4,1.9h-36V437.9h21v25.8Zm-.2,22.4a5.2,5.2,0,0,0-1.3-3.6c-.9-1-2.4-1.5-4.6-1.5h-8.9v39.7l-8.2,4.5h17.1c2.4,0,4-.5,4.8-1.6a6.5,6.5,0,0,0,1.1-3.4Z" transform="translate(-161.5 -437.6)"/>
      <path d="M572.3,463.7a22.3,22.3,0,0,1,9.5,1.9,18.2,18.2,0,0,1,6,4.8,18.8,18.8,0,0,1,3.2,6.5,30,30,0,0,1,.9,7.1v39.2a29.4,29.4,0,0,1-.9,7.1,20.2,20.2,0,0,1-3.2,6.6,17.2,17.2,0,0,1-6,4.9,22.3,22.3,0,0,1-9.5,1.9H556.8a21.5,21.5,0,0,1-9.4-1.9,17.6,17.6,0,0,1-6.1-4.9,17.1,17.1,0,0,1-3.3-6.6,29.4,29.4,0,0,1-.9-7.1V484a30,30,0,0,1,.9-7.1,16.1,16.1,0,0,1,3.3-6.5,18.6,18.6,0,0,1,6.1-4.8,21.5,21.5,0,0,1,9.4-1.9Zm-.1,23.5a6.5,6.5,0,0,0-1.1-3.4c-.7-1.1-2.4-1.6-4.9-1.6h-3.5c-2.4,0-4,.5-4.7,1.6a5.9,5.9,0,0,0-1.2,3.4v33l-7.3,5h16.7c2.5,0,4.2-.5,4.9-1.6a6.5,6.5,0,0,0,1.1-3.4Z" transform="translate(-161.5 -437.6)"/>
      <path d="M641.5,543.7a59.5,59.5,0,0,0-.1-7.3c-.2-2.1-.5-4.4-.9-6.8a34.6,34.6,0,0,0-1.9-7c-.7-1.4-1.3-2.8-2-4l-1.9-3.4c-.7-1-1.4-2-2-3l-.3-.6-.5.6-2,3-1.9,3.4-2,4a29.3,29.3,0,0,0-2,7c-.3,2.4-.6,4.7-.8,6.8a44.5,44.5,0,0,0,0,7.3H603.1c.2-3.5.6-6.9,1.1-10.3s1.2-6,2.1-9.3a45.4,45.4,0,0,1,3.3-9,42.3,42.3,0,0,1,2.3-4.1l2.4-3.8,2.2-3.1a12.6,12.6,0,0,1,1.4-1.8l-2.1-2.2c-.9-1.1-2-2.6-3.2-4.3a52.5,52.5,0,0,1-3.7-6,39.3,39.3,0,0,1-3.2-7.2,32.5,32.5,0,0,1-1.7-6.3c-.3-2.2-.6-4.3-.8-6.2a45.3,45.3,0,0,1-.1-6.4h19.7a37.1,37.1,0,0,0,.3,4.7c.2,1.3.4,2.8.6,4.4a23.6,23.6,0,0,0,1,4.6q.8,2.4,1.8,5.1a28.6,28.6,0,0,0,2.7,5.2l-8.9,4.6h11.9a35.4,35.4,0,0,0,4.4-6.4,33.4,33.4,0,0,0,3.3-8.5c.4-1.5.7-3,1-4.6s.4-3.1.6-4.4a37.1,37.1,0,0,0,.3-4.7h19.7a45.3,45.3,0,0,1-.1,6.4c-.2,1.9-.4,4-.7,6.2a26.5,26.5,0,0,1-1.6,6.3,51,51,0,0,1-3.2,7.1c-1.3,2.2-2.5,4.2-3.7,5.9a43.1,43.1,0,0,1-3.4,4.3l-2.1,2.4a12.6,12.6,0,0,1,1.4,1.8,32,32,0,0,1,2.2,3.1l2.5,3.8a43.6,43.6,0,0,1,2.4,4.1,45.3,45.3,0,0,1,3.2,9c.8,3.3,1.5,6.4,2,9.3s.9,6.8,1.1,10.3Z" transform="translate(-161.5 -437.6)"/>
    </g>
    <g>
      <rect class="cls-1" x="0.9" y="0.9" width="102.2" height="102.19"/>
      <path class="cls-2" d="M223.4,518.8H203.6l-5.7,24.9H161.5l29-106.1h14.1c7.6,0,13.7.4,18.3,1.4a33,33,0,0,1,10.8,3.7,14.6,14.6,0,0,1,5.6,5.4,37.6,37.6,0,0,1,2.7,6.2l23.5,89.4H229.1Zm-3.5-15L213.5,476l-5.2,22.4-12.6,5.4Z" transform="translate(-161.5 -437.6)"/>
    </g>
  </g>
</svg>
