<svg id="Layer_1" data-name="Layer 1" xmlns="http://www.w3.org/2000/svg" viewBox="0 0 347.4 85.9">
  <title>abbox.id logo</title>
  <g>
    <path d="M372.3,459.8v79.7h-9.8V459.2a4.6,4.6,0,0,0-2.7-2.6h-20a4.9,4.9,0,0,0-2.3.5,5.1,5.1,0,0,0-1.7,2.3v80.1h-9.6V459.7c.8-3.6,2.7-5.7,5.8-6.2h33.7C369.3,453.5,371.5,455.6,372.3,459.8ZM358,522H340.6v-3.2H358Z" transform="translate(-326.3 -453.5)"/>
    <path d="M389.3,539.5h-8.9V468.8h8.9Zm28.9-45.7a8.5,8.5,0,0,1,5.1,6.1l.3,1v30.6a11.4,11.4,0,0,1-3.5,5.9,10.2,10.2,0,0,1-2.9,1.7c-.9.2-5.3.4-13.1.4H392.6v-4.1h16.6a7.7,7.7,0,0,0,5-4.6l.3-.7V503.3a3.7,3.7,0,0,0-.4-2.1c-.2-.4-.3-.7-.4-.7a5.5,5.5,0,0,0-2.2-2.5l-2-.8c-.5-.2-3.5-.3-8.9-.3h-8V493h11.5c7.6,0,11.7,0,12.3.2A6.4,6.4,0,0,1,418.2,493.8Z" transform="translate(-326.3 -453.5)"/>
    <path d="M440.3,539.5h-8.9V468.8h8.9Zm29-45.7a8.6,8.6,0,0,1,5,6.1l.3,1v30.6a12,12,0,0,1-3.4,5.9,9.3,9.3,0,0,1-3,1.7c-.8.2-5.2.4-13,.4H443.7v-4.1h16.5a7.7,7.7,0,0,0,5-4.6l.4-.7V503.3a4.8,4.8,0,0,0-.4-2.1l-.4-.7a5.7,5.7,0,0,0-2.3-2.5l-2-.8c-.4-.2-3.4-.3-8.9-.3h-7.9V493h11.5c7.5,0,11.6,0,12.3.2A6.4,6.4,0,0,1,469.3,493.8Z" transform="translate(-326.3 -453.5)"/>
    <path d="M518.5,493.4l1.1.4a8.7,8.7,0,0,1,5.6,6.3l.2.9v30.6l-.2.9a10.1,10.1,0,0,1-3.1,4.9,12.2,12.2,0,0,1-3.6,1.8l-1,.3H504c-8.8,0-13.6-.1-14.4-.2l-.6-.2a8.8,8.8,0,0,1-6.3-6.5c-.1-.5-.2-5.9-.2-16.2V503.8a17,17,0,0,1,.6-5l.5-.9a8.6,8.6,0,0,1,6.2-4.6h14.4C513.1,493.2,517.8,493.3,518.5,493.4Zm-22,4a6.4,6.4,0,0,0-4.7,4.3c-.3.8-.4,5.8-.4,15.1v11.3a9,9,0,0,0,.8,3.8,6.6,6.6,0,0,0,3.9,3.2l.8.3H511l.8-.2a7.6,7.6,0,0,0,4.3-4.3l.3-.8v-25a12.9,12.9,0,0,0-.7-4.2,7.2,7.2,0,0,0-3-3l-.6-.3c-.7-.3-3.5-.5-8.3-.5h-.2C499.4,497.1,497.1,497.2,496.5,497.4Z" transform="translate(-326.3 -453.5)"/>
    <path d="M576.1,493.7l-.8,1.2c-.5.8-5.9,8-16.1,21.8l-16.8,22.7h-4.6a21.2,21.2,0,0,1-4.4-.2l.8-1.2c.5-.8,2.1-2.8,4.5-6s6.4-8.6,11.8-16.1l17.1-23.1h9Zm-31.3,7.4,7.1,8.6c.1.1-.2.6-.9,1.6a5.2,5.2,0,0,1-1.2,1.3L533.4,493H538Zm23.6,28.4,8.2,9.9a7.7,7.7,0,0,1-2.2.1H572l-6.8-8.2-7-8.6a7.1,7.1,0,0,1,.9-1.6l1.1-1.4Z" transform="translate(-326.3 -453.5)"/>
    <path d="M596.7,539.5h-9.4V529.3h9.4Z" transform="translate(-326.3 -453.5)"/>
    <path d="M617,539.5h-9.6v-86H617Z" transform="translate(-326.3 -453.5)"/>
    <path d="M627.7,453.9h19.9q19.9,0,21,.3a7.6,7.6,0,0,1,4.6,4l.4,1v74.9l-.6,1.4a7.5,7.5,0,0,1-3.5,3.3l-1.2.6H642v-2.8h7.7c5.1,0,8-.1,8.8-.2a7.3,7.3,0,0,0,5.3-4.2,10.4,10.4,0,0,0,.6-1.6c.2-1.3.3-19.5.1-54.9,0-8-.1-12.2-.1-12.6a7.3,7.3,0,0,0-4.4-5.5l-.5-.2a107.8,107.8,0,0,0-11.5-.3H637.4v82.3h-9.7V453.9Z" transform="translate(-326.3 -453.5)"/>
  </g>
</svg>
