<svg xmlns="http://www.w3.org/2000/svg" xmlns:xlink="http://www.w3.org/1999/xlink" viewBox="0 0 1171 348">
  <defs>
    <style>
      .cls-1 {
        fill: url(#linear-gradient);
      }

      .cls-2 {
        fill: #fff;
      }
    </style>
    <linearGradient id="linear-gradient" x1="42.2" y1="94.32" x2="340.05" y2="274.39" gradientUnits="userSpaceOnUse">
      <stop offset="0" stop-color="red"/>
      <stop offset="1" stop-color="#c1272d"/>
    </linearGradient>
  </defs>
  <title>Asset 7</title>
  <g id="Layer_2" data-name="Layer 2">
    <g id="Layer_1-2" data-name="Layer 1">
      <g>
        <g>
          <circle class="cls-1" cx="174" cy="174" r="174"/>
          <path class="cls-2" d="M270.1,161.9l-84-84a17.1,17.1,0,0,0-24.2,0l-84,84a17.1,17.1,0,0,0,0,24.2l84,84a17.1,17.1,0,0,0,24.2,0l84-84A17.1,17.1,0,0,0,270.1,161.9ZM161.9,113.4a17.1,17.1,0,0,1,24.2,0,17.3,17.3,0,0,1,5,12.1A17.1,17.1,0,0,1,174,142.6a17.3,17.3,0,0,1-12.1-5,17.1,17.1,0,0,1-5-12.1A17.3,17.3,0,0,1,161.9,113.4Zm71.9,72.2-48.2,48.2a16.4,16.4,0,0,1-10.7,4.9h-.8l-2.3-.2a16,16,0,0,1-9.4-4.7l-48.2-48.2a17.1,17.1,0,0,1,0-24.2h0a17.1,17.1,0,0,1,24.2,0L150,173a33.9,33.9,0,0,0,48,0l11.6-11.6a17.1,17.1,0,0,1,24.2,0h0A17.1,17.1,0,0,1,233.8,185.6Z"/>
        </g>
        <g>
          <g>
            <path d="M437.8,75.1h15.7L502,206.5H482.1l-36.5-106-36.4,106H389.3Zm-26.2,85.1h69.2v17.5H411.6Z"/>
            <path d="M521.9,75.1h18.3V206.5H521.9Zm10.8,114.3h35.6c9.4,0,16.2-1.7,20.5-5.3s6.4-8.5,6.4-15v-.3a26.3,26.3,0,0,0-2.3-11.4,16.3,16.3,0,0,0-7.3-7.4,27.8,27.8,0,0,0-12.7-2.6H532.7V130.8h40.2c6.8,0,11.9-1.6,15.4-4.8s5.2-7.9,5.2-14.2-2-11.5-5.8-14.8-9.7-4.8-17.4-4.8H532.7V75.1h41c8.5,0,15.6,1.4,21.3,4.3a28.8,28.8,0,0,1,12.8,12.3c2.9,5.3,4.3,11.6,4.3,19a31.7,31.7,0,0,1-2.6,12.7,27,27,0,0,1-8,10.1,30.8,30.8,0,0,1-13.4,5.7A28.4,28.4,0,0,1,610.7,156a33.7,33.7,0,0,1,3.1,14.5v.2a37.2,37.2,0,0,1-4.7,18.8,30.5,30.5,0,0,1-13.5,12.6c-5.8,3-12.6,4.4-20.4,4.4H532.7Z"/>
            <path d="M641.4,75.1h18.3V206.5H641.4Zm10.8,114.3h35.7c9.3,0,16.1-1.7,20.4-5.3s6.4-8.5,6.4-15v-.3a26.3,26.3,0,0,0-2.3-11.4,15.9,15.9,0,0,0-7.3-7.4c-3.3-1.7-7.5-2.6-12.7-2.6H652.2V130.8h40.2c6.8,0,11.9-1.6,15.4-4.8s5.2-7.9,5.2-14.2-1.9-11.5-5.8-14.8-9.6-4.8-17.4-4.8H652.2V75.1h41c8.5,0,15.6,1.4,21.3,4.3a29.5,29.5,0,0,1,12.9,12.3c2.8,5.3,4.2,11.6,4.2,19a31.7,31.7,0,0,1-2.6,12.7,26.1,26.1,0,0,1-8,10.1,30.4,30.4,0,0,1-13.3,5.7,28.9,28.9,0,0,1,13.7,5.6,30.6,30.6,0,0,1,8.9,11.2,35.2,35.2,0,0,1,3,14.5v.2a36.2,36.2,0,0,1-4.7,18.8,30.8,30.8,0,0,1-13.4,12.6c-5.9,3-12.7,4.4-20.5,4.4H652.2Z"/>
            <path d="M777.4,201.9a41.5,41.5,0,0,1-16.2-17q-5.7-11-5.7-25.5V122.2c0-9.7,1.9-18.1,5.7-25.5a41.5,41.5,0,0,1,16.2-17q10.5-6,24.3-6a48,48,0,0,1,24.2,6,40.9,40.9,0,0,1,16.2,17c3.9,7.4,5.8,15.8,5.8,25.5v37.2c0,9.7-1.9,18.2-5.8,25.5a40.9,40.9,0,0,1-16.2,17,48,48,0,0,1-24.2,6Q787.9,207.9,777.4,201.9ZM816,186.1a25.4,25.4,0,0,0,9.6-10.4,33.8,33.8,0,0,0,3.4-15.6V121.6a33.2,33.2,0,0,0-3.4-15.6A24.8,24.8,0,0,0,816,95.6a27,27,0,0,0-14.3-3.7,27.6,27.6,0,0,0-14.4,3.7,24,24,0,0,0-9.5,10.4,33.2,33.2,0,0,0-3.4,15.6v38.5a33.8,33.8,0,0,0,3.4,15.6,24.5,24.5,0,0,0,9.5,10.4,28.5,28.5,0,0,0,14.4,3.6A27.9,27.9,0,0,0,816,186.1Z"/>
            <path d="M906.3,131.4l33-56.3H960l-43.5,71.1-35.3,60.3H860.5Zm.8,17.4-2.8-4.6L861.6,75.1h20.7l31.8,53.5,2.9,4.9,45,73H941.3Z"/>
            <path d="M981.4,187.2h19.4v19.3H981.4Z"/>
            <path d="M1046.8,206.5h-18.5V75.1h18.5Z"/>
            <path d="M1079.3,75.1h18.5V206.5h-18.5ZM1091.8,189h29.7c9.7,0,17.3-2.5,22.6-7.6s8-12.1,8-21.2V121.5c0-9.2-2.7-16.3-8-21.3s-12.9-7.6-22.6-7.6h-29.7V75.1H1121c10.6,0,19.6,1.8,27,5.5a38.1,38.1,0,0,1,17.1,16.1c3.9,7,5.9,15.5,5.9,25.5v37.2c0,10-2,18.5-5.9,25.5A38.1,38.1,0,0,1,1148,201c-7.5,3.7-16.5,5.5-27.1,5.5h-29.1Z"/>
          </g>
          <g>
            <path d="M400.9,216.9h9.4c4,0,7,1,9.2,2.9s3.3,4.7,3.3,8.3a13.5,13.5,0,0,1-4.4,10.6c-2.9,2.6-6.9,3.9-11.9,3.9h-8.1l-3.7,17.3h-2.9Zm5.7,23c4.2,0,7.5-1,9.7-3s3.4-4.8,3.4-8.6-.8-4.9-2.5-6.4-4.2-2.3-7.5-2.3h-6.4L399,239.9Z"/>
            <path d="M427,248c0,3.2.8,5.6,2.4,7.4a8.7,8.7,0,0,0,6.9,2.7,17.4,17.4,0,0,0,8.4-2.5l-.5,2.9a18,18,0,0,1-8.4,2.1c-3.7,0-6.6-1.1-8.6-3.4s-3.1-5.4-3.1-9.4a21.4,21.4,0,0,1,2.3-9.8,17.9,17.9,0,0,1,6-7,14.1,14.1,0,0,1,8-2.6,10,10,0,0,1,6.4,2,6.6,6.6,0,0,1,2.4,5.4c0,3.5-1.7,6.1-5.2,7.7s-9.1,2.6-16.9,2.7Zm.5-4.3c6.4,0,11.1-.6,14.2-1.8s4.6-3.1,4.6-5.8-2.1-5.2-6.3-5.2a10.8,10.8,0,0,0-8,3.6A17.4,17.4,0,0,0,427.5,243.7Z"/>
            <path d="M458.3,229.2h2.8l-1.2,7.2h.2a18.6,18.6,0,0,1,4.3-6,8.4,8.4,0,0,1,5.4-2,7.3,7.3,0,0,1,3.3.8l-.5,2.8h-.1a5.9,5.9,0,0,0-3.2-1.1c-2.3,0-4.5,1.5-6.7,4.4a28.6,28.6,0,0,0-4.7,11L455,259.9h-2.8l4.3-20A71.9,71.9,0,0,0,458.3,229.2Z"/>
            <path d="M472.7,255.6a16.4,16.4,0,0,0,3.5,1.8,11.5,11.5,0,0,0,3.9.7,8.8,8.8,0,0,0,5.5-1.5,5.1,5.1,0,0,0,2-4.3,5.2,5.2,0,0,0-1.1-3.3,17.6,17.6,0,0,0-4.1-3.2,18,18,0,0,1-4.9-4,7.2,7.2,0,0,1-1.4-4.4A8.2,8.2,0,0,1,479,231a10.4,10.4,0,0,1,7.2-2.6,18,18,0,0,1,3.7.5,10.3,10.3,0,0,1,3.5,1.1l-.6,2.9a12.4,12.4,0,0,0-6.9-2,7.3,7.3,0,0,0-4.9,1.7,5.6,5.6,0,0,0-2,4.4,5.6,5.6,0,0,0,1.1,3.5,14.9,14.9,0,0,0,4,3.1,17.8,17.8,0,0,1,4.9,4,6.6,6.6,0,0,1,1.4,4.4,7.8,7.8,0,0,1-2.8,6.3,11.9,11.9,0,0,1-7.6,2.3,14.8,14.8,0,0,1-7.9-2.1Z"/>
            <path d="M508.5,260.6a10.2,10.2,0,0,1-7.9-3.1c-1.9-2.1-2.9-5-2.9-8.8a25.4,25.4,0,0,1,2.2-10.3,18.9,18.9,0,0,1,5.9-7.3,13.9,13.9,0,0,1,8.2-2.7,10.2,10.2,0,0,1,8,3.2,12.9,12.9,0,0,1,2.8,8.6,25.1,25.1,0,0,1-2.1,10.4,18.2,18.2,0,0,1-5.9,7.4A14.3,14.3,0,0,1,508.5,260.6Zm.3-2.5a10.8,10.8,0,0,0,6.6-2.3,14.6,14.6,0,0,0,4.7-6.3,21.9,21.9,0,0,0,1.8-9c0-3.1-.7-5.5-2.2-7.1a7.6,7.6,0,0,0-6-2.5,10.7,10.7,0,0,0-6.5,2.3,14.3,14.3,0,0,0-4.8,6.4,21.8,21.8,0,0,0-1.8,8.9,10.9,10.9,0,0,0,2.2,7.1A7.6,7.6,0,0,0,508.8,258.1Z"/>
            <path d="M535.1,229.2h2.7l-1.4,8.7h.1c3.9-6.3,8.2-9.5,12.9-9.5,2.6,0,4.6.7,5.8,2s1.8,3.5,1.8,6.3a11.5,11.5,0,0,1-.2,2.4c-.2,1-1.6,7.9-4.3,20.8h-2.8l3.6-17.7a33.1,33.1,0,0,0,.9-5q0-6.3-5.4-6.3a10.3,10.3,0,0,0-5.4,2.1,23.6,23.6,0,0,0-5.4,5.5,19.7,19.7,0,0,0-3.2,7.1l-3,14.3H529l4.7-22.2A77.9,77.9,0,0,0,535.1,229.2Z"/>
            <path d="M582.8,259.9a77,77,0,0,1,1.3-9.9H584a29.5,29.5,0,0,1-5.9,7.9,9.7,9.7,0,0,1-6.6,2.7,7.5,7.5,0,0,1-6.3-2.8c-1.5-2-2.2-4.6-2.2-8.1a24.5,24.5,0,0,1,2.4-10.9,18.6,18.6,0,0,1,6.8-7.6,16.5,16.5,0,0,1,9.4-2.8,51.3,51.3,0,0,1,9.4,1.1l-4,19.4c-.3,1.5-.6,3.4-.9,5.6a46.6,46.6,0,0,0-.5,5.4Zm5-28.3a34.8,34.8,0,0,0-6.4-.7,13.9,13.9,0,0,0-7.9,2.4,14.9,14.9,0,0,0-5.6,6.5,21.4,21.4,0,0,0-2,9.6c0,5.8,2,8.7,6.2,8.7,1.6,0,3.3-.8,5.2-2.4a24.1,24.1,0,0,0,5.2-6.6,29.7,29.7,0,0,0,3.4-8.6Z"/>
            <path d="M603.9,214.4h2.8L598.9,251a27.5,27.5,0,0,0-.7,5.2A1.6,1.6,0,0,0,600,258a7.5,7.5,0,0,0,2.6-.5l-.5,2.3a8.2,8.2,0,0,1-3,.7c-2.5,0-3.8-1.4-3.8-4.1a17,17,0,0,1,.4-3.5C596,251.5,598.7,238.7,603.9,214.4Z"/>
            <path d="M634.1,216.9h10.5a10.4,10.4,0,0,1,7.3,2.5,8.5,8.5,0,0,1,2.7,6.7,11.6,11.6,0,0,1-2.6,7.7,11.2,11.2,0,0,1-7,3.9h0a9.1,9.1,0,0,1,5.2,3.2,9.3,9.3,0,0,1,1.8,5.8c0,4.2-1.3,7.4-3.9,9.7s-6.2,3.4-11,3.4H624.9Zm2.7,40.3c8.1,0,12.1-3.4,12.1-10.2a7.2,7.2,0,0,0-2.7-6q-2.6-2.1-7.5-2.1h-6.3l-3.9,18.3Zm3-20.9c3.7,0,6.6-.9,8.6-2.7a9.3,9.3,0,0,0,3.1-7.2,6.3,6.3,0,0,0-2-5,8.2,8.2,0,0,0-5.6-1.8h-7.4l-3.6,16.7Z"/>
            <path d="M667.1,214.4h2.8L662.1,251a27.5,27.5,0,0,0-.7,5.2,1.6,1.6,0,0,0,1.8,1.8,7.5,7.5,0,0,0,2.6-.5l-.5,2.3a8.2,8.2,0,0,1-3,.7c-2.5,0-3.8-1.4-3.8-4.1a17,17,0,0,1,.4-3.5C659.2,251.5,661.9,238.7,667.1,214.4Z"/>
            <path d="M682.1,260.6a10.2,10.2,0,0,1-7.9-3.1c-1.9-2.1-2.8-5-2.8-8.8a25.3,25.3,0,0,1,2.1-10.3,18.2,18.2,0,0,1,6-7.3,13.7,13.7,0,0,1,8.2-2.7,10.1,10.1,0,0,1,7.9,3.2c1.9,2.1,2.8,5,2.8,8.6a25.1,25.1,0,0,1-2.1,10.4,18.2,18.2,0,0,1-5.9,7.4A14.3,14.3,0,0,1,682.1,260.6Zm.3-2.5a10.8,10.8,0,0,0,6.6-2.3,14.6,14.6,0,0,0,4.7-6.3,21.9,21.9,0,0,0,1.8-9c0-3.1-.7-5.5-2.1-7.1a8,8,0,0,0-6.1-2.5,10.7,10.7,0,0,0-6.5,2.3,15.9,15.9,0,0,0-4.8,6.4,21.8,21.8,0,0,0-1.8,8.9,10.9,10.9,0,0,0,2.2,7.1A7.6,7.6,0,0,0,682.4,258.1Z"/>
            <path d="M700.7,269.2a16.7,16.7,0,0,0,8.3,2.4c3.6,0,6.5-1,8.6-3s3.7-5.3,4.7-9.8l2-8.6h-.1a31.7,31.7,0,0,1-6,8,9.9,9.9,0,0,1-6.3,2.4,7.6,7.6,0,0,1-6.4-2.8,14,14,0,0,1-2.2-8.2,23.9,23.9,0,0,1,2.5-10.8,18,18,0,0,1,6.8-7.6,16.7,16.7,0,0,1,9.4-2.8l4.4.3a47.9,47.9,0,0,1,5,.8l-6.1,28.2c-1.3,5.9-3.3,10.2-5.9,12.7s-6.3,3.9-11,3.9a16.3,16.3,0,0,1-8.2-2.2Zm27.4-37.6a33.2,33.2,0,0,0-6.5-.7,13.8,13.8,0,0,0-7.8,2.4,16.2,16.2,0,0,0-5.6,6.5,21.8,21.8,0,0,0-2,9.3q0,9,6,9a8.8,8.8,0,0,0,5.6-2.4A26.4,26.4,0,0,0,723,249a28.8,28.8,0,0,0,3.3-8.5Z"/>
          </g>
        </g>
      </g>
    </g>
  </g>
</svg>
