<svg id="Layer_1" data-name="Layer 1" xmlns="http://www.w3.org/2000/svg" viewBox="0 0 728 425">
  <defs>
    <style>
      .cls-1 {
        fill: #b51200;
      }

      .cls-2 {
        fill: #fff;
      }
    </style>
  </defs>
  <title>Untitled-2</title>
  <g>
    <g>
      <rect class="cls-1" x="244.3" y="176.3" width="72.3" height="72.26" transform="translate(-68 260.5) rotate(-45)"/>
      <g>
        <polygon class="cls-2" points="312.1 214.6 299.4 214.6 295 210.2 288.6 203.8 280.4 195.6 280.4 182.8 295 197.4 301.4 203.8 312.1 214.6"/>
        <polygon class="cls-2" points="280.4 182.8 280.4 195.6 272.3 203.8 265.9 210.2 261.5 214.6 248.8 214.6 259.5 203.8 265.9 197.4 280.4 182.8"/>
      </g>
      <polygon class="cls-2" points="295 210.2 280.4 224.8 280.4 212 288.6 203.8 295 210.2"/>
      <polygon class="cls-2" points="280.4 212 280.4 224.8 265.9 210.2 272.3 203.8 280.4 212"/>
    </g>
    <g>
      <path d="M352,194.4h3.1l9.7,26.3h-4l-7.2-21.2-7.3,21.2h-4Zm-5.2,17h13.8v3.5H346.8Z"/>
      <path d="M368.8,194.4h3.6v26.3h-3.6Zm2.1,22.8h7.2a6.2,6.2,0,0,0,4-1,3.5,3.5,0,0,0,1.3-3h0a5.6,5.6,0,0,0-.4-2.3,2.9,2.9,0,0,0-1.5-1.4,4.6,4.6,0,0,0-2.5-.6h-8.1v-3.3H379a4.3,4.3,0,0,0,3-.9,3.8,3.8,0,0,0,1.1-2.9,3.4,3.4,0,0,0-1.2-2.9,4.8,4.8,0,0,0-3.4-1h-7.6v-3.4h8.2a9.1,9.1,0,0,1,4.3.9,6,6,0,0,1,2.6,2.4,8.9,8.9,0,0,1,.8,3.8,5.8,5.8,0,0,1-2.1,4.6,6.7,6.7,0,0,1-2.7,1.1,6.3,6.3,0,0,1,2.8,1.1,6.6,6.6,0,0,1,1.7,2.3,6.4,6.4,0,0,1,.7,2.8h0a8,8,0,0,1-1,3.8,6.6,6.6,0,0,1-2.7,2.5,8.6,8.6,0,0,1-4.1.9h-8.5Z"/>
      <path d="M392.7,194.4h3.6v26.3h-3.6Zm2.1,22.8h7.1c1.9,0,3.3-.3,4.1-1a3.5,3.5,0,0,0,1.3-3h0a5.6,5.6,0,0,0-.4-2.3,3.4,3.4,0,0,0-1.5-1.4,4.9,4.9,0,0,0-2.5-.6h-8.1v-3.3h8.1a4.5,4.5,0,0,0,3-.9,3.8,3.8,0,0,0,1.1-2.9,3.4,3.4,0,0,0-1.2-2.9,5,5,0,0,0-3.5-1h-7.5v-3.4H403a9.4,9.4,0,0,1,4.3.9,5.3,5.3,0,0,1,2.5,2.4,7.6,7.6,0,0,1,.9,3.8,5.8,5.8,0,0,1-2.1,4.6,6.7,6.7,0,0,1-2.7,1.1,5.5,5.5,0,0,1,2.7,1.1,5.8,5.8,0,0,1,1.8,2.3,6.4,6.4,0,0,1,.6,2.8h0a7.9,7.9,0,0,1-.9,3.8,6.6,6.6,0,0,1-2.7,2.5,8.8,8.8,0,0,1-4.1.9h-8.5Z"/>
      <path d="M419.9,219.7a8.3,8.3,0,0,1-3.3-3.4,10.1,10.1,0,0,1-1.1-5.1v-7.4a10.6,10.6,0,0,1,1.1-5.1,9,9,0,0,1,3.3-3.4,9.2,9.2,0,0,1,4.8-1.2,9.5,9.5,0,0,1,4.8,1.2,9,9,0,0,1,3.3,3.4,11.9,11.9,0,0,1,1.1,5.1v7.4a11.3,11.3,0,0,1-1.1,5.1,8.3,8.3,0,0,1-3.3,3.4,9.5,9.5,0,0,1-4.8,1.2A9.2,9.2,0,0,1,419.9,219.7Zm7.7-3.1a5.5,5.5,0,0,0,1.9-2.1,7.8,7.8,0,0,0,.6-3.1v-7.7a7.5,7.5,0,0,0-.6-3.1,5.5,5.5,0,0,0-1.9-2.1,5.7,5.7,0,0,0-5.8,0,5.5,5.5,0,0,0-1.9,2.1,7.4,7.4,0,0,0-.7,3.1v7.7a7.8,7.8,0,0,0,.7,3.1,5.5,5.5,0,0,0,1.9,2.1,6.4,6.4,0,0,0,5.8,0Z"/>
      <path d="M445.6,205.6l6.6-11.2h4.1l-8.7,14.2-7,12.1h-4.1Zm.2,3.5-.6-.9-8.5-13.8h4.1l6.3,10.7.6,1,9,14.6h-4.1Z"/>
      <path d="M460.6,216.8h3.9v3.9h-3.9Z"/>
      <path d="M473.7,220.7H470V194.4h3.7Z"/>
      <path d="M480.2,194.4h3.7v26.3h-3.7Zm2.5,22.7h5.9a6.4,6.4,0,0,0,4.5-1.5,5.4,5.4,0,0,0,1.6-4.2v-7.7a5.4,5.4,0,0,0-1.6-4.3,6.4,6.4,0,0,0-4.5-1.5h-5.9v-3.5h5.8a12.7,12.7,0,0,1,5.4,1.1,7.5,7.5,0,0,1,3.4,3.2,10.1,10.1,0,0,1,1.2,5.1v7.4a10.1,10.1,0,0,1-1.2,5.1,8.3,8.3,0,0,1-3.4,3.3,12.7,12.7,0,0,1-5.4,1.1h-5.8Z"/>
    </g>
  </g>
</svg>
