<svg id="Layer_1" data-name="Layer 1" xmlns="http://www.w3.org/2000/svg" viewBox="0 0 395 106.1">
  <defs>
    <style>
      .cls-1 {
        fill: #b51200;
      }

      .cls-2 {
        fill: #fff;
      }
    </style>
  </defs>
  <title>abbox.id logo</title>
  <g>
    <g>
      <rect class="cls-1" x="0.9" y="0.9" width="102.2" height="102.19"/>
      <path class="cls-2" d="M223.4,528.2H203.6L197.9,553H161.5l29-106h14.1a99.8,99.8,0,0,1,18.3,1.3,38.5,38.5,0,0,1,10.8,3.7,16.2,16.2,0,0,1,5.6,5.4,42.7,42.7,0,0,1,2.7,6.3L265.5,553H229.1Zm-3.5-15-6.4-27.8-5.2,22.4-12.6,5.4Z" transform="translate(-161.5 -447)"/>
    </g>
    <g>
      <path d="M316.3,504l14.5,46.1H319.1l-2.8-9.5H301.4l-2.9,9.5H289L303.8,504ZM304,532.1h9.8l-4.9-16.2Z" transform="translate(-161.5 -447)"/>
      <path d="M345.3,504v16.2a9.1,9.1,0,0,1,8.5-5,10.9,10.9,0,0,1,9.3,4.8c2.3,3.2,3.4,7.5,3.4,13s-1.2,9.6-3.5,12.9-5.7,4.9-10.2,4.9a11.6,11.6,0,0,1-5.6-1.2,12.9,12.9,0,0,1-4.3-4.8c-.7.7-1.4,2.5-2.3,5.3h-5.3V504Zm0,32.6a8.3,8.3,0,0,0,1.5,5.4,4.5,4.5,0,0,0,3.6,1.8,5,5,0,0,0,4.2-2.2c1-1.5,1.6-4.4,1.6-8.6s-.6-7.9-1.7-9.1a4.9,4.9,0,0,0-3.8-1.9,4.6,4.6,0,0,0-3.9,2.1,10.1,10.1,0,0,0-1.5,5.9Z" transform="translate(-161.5 -447)"/>
      <path d="M383,504v16.2a9,9,0,0,1,8.5-5,10.9,10.9,0,0,1,9.3,4.8c2.2,3.2,3.4,7.5,3.4,13s-1.2,9.6-3.5,12.9-5.8,4.9-10.2,4.9a11.6,11.6,0,0,1-5.6-1.2,12.9,12.9,0,0,1-4.3-4.8c-.7.7-1.4,2.5-2.3,5.3h-5.4V504Zm0,32.6a8.3,8.3,0,0,0,1.5,5.4,4.5,4.5,0,0,0,3.6,1.8,4.7,4.7,0,0,0,4.1-2.2c1.1-1.5,1.7-4.4,1.7-8.6s-.6-7.9-1.7-9.1a4.9,4.9,0,0,0-3.8-1.9,4.4,4.4,0,0,0-3.9,2.1A10.1,10.1,0,0,0,383,530Z" transform="translate(-161.5 -447)"/>
      <path d="M424.8,515.2c5.2,0,9.2,1.7,12.2,5.1s4.3,7.7,4.3,12.8a18,18,0,0,1-4.5,12.6,15.4,15.4,0,0,1-12.1,5.1,15.1,15.1,0,0,1-11.7-5c-2.9-3.3-4.3-7.6-4.3-12.8a18.8,18.8,0,0,1,2-9.3,15.9,15.9,0,0,1,5.4-6.1A14.9,14.9,0,0,1,424.8,515.2Zm.3,6.6a5.1,5.1,0,0,0-4.4,2.2c-.9,1.5-1.4,4.5-1.4,8.9s.4,6.9,1.4,8.6a4.5,4.5,0,0,0,4.3,2.7,4.8,4.8,0,0,0,4.1-2.3c1.1-1.5,1.6-4.3,1.6-8.5s-.5-7.6-1.4-9.2A4.5,4.5,0,0,0,425.1,521.8Z" transform="translate(-161.5 -447)"/>
      <path d="M475,516l-9.9,15.8,11.5,18.3H465.2l-7.1-11.8-7,11.8h-8.6l11.3-18.4L444,516h11.5l5.5,9.2,5.4-9.2Z" transform="translate(-161.5 -447)"/>
      <path d="M509.4,504v46.1H498.6V504Z" transform="translate(-161.5 -447)"/>
      <path d="M518.6,504h14.1c5.8,0,10,.7,12.8,2.3a21.2,21.2,0,0,1,7.6,7.6,23.7,23.7,0,0,1,3.4,13,24,24,0,0,1-5.9,16.5c-3.9,4.5-9.3,6.7-16.1,6.7H518.6Zm10.6,8.4v29h4.5c3.9,0,6.9-1.5,8.8-4.4a18.6,18.6,0,0,0,2.8-10.4,18,18,0,0,0-1.6-7.7c-1.1-2.4-2.4-4.1-4.1-5a10.6,10.6,0,0,0-5.8-1.5Z" transform="translate(-161.5 -447)"/>
    </g>
  </g>
</svg>
