<svg xmlns="http://www.w3.org/2000/svg" xmlns:xlink="http://www.w3.org/1999/xlink" viewBox="0 0 1783.6 554">
  <defs>
    <style>
      .cls-1 {
        fill: url(#linear-gradient);
      }
    </style>
    <linearGradient id="linear-gradient" y1="277" x2="554" y2="277" gradientUnits="userSpaceOnUse">
      <stop offset="0" stop-color="red"/>
      <stop offset="1" stop-color="#c1272d"/>
    </linearGradient>
  </defs>
  <title>Asset 11</title>
  <g id="Layer_2" data-name="Layer 2">
    <g id="Layer_1-2" data-name="Layer 1">
      <g>
        <path class="cls-1" d="M0,0V554H.3L105.5,448.8,210.7,554H554V0ZM427.5,427.5h-301v-301h301Z"/>
        <g>
          <path d="M804.7,128.3l77.8,293.6H844.8l-17.2-65H715.1l-37.5,65H634.5ZM792.3,223,733.2,325.6h86.2Z"/>
          <path d="M957.7,127h38.2L975.4,262.3c19.7-15,38.8-22.6,57.3-22.6,23.6,0,44,8.9,60.9,26.8s25.4,39.1,25.4,64-9.4,48.1-28.2,67.5-40.7,29-65.4,29a72.6,72.6,0,0,1-41.1-12.6A74.8,74.8,0,0,1,956.8,382l-5.6,39.9H913.1Zm121,202.2c0-16.6-5.7-30.7-17.1-42.4s-25.1-17.6-41.1-17.6-31.2,6.4-43,19-17.6,28.2-17.6,46.5a57.8,57.8,0,0,0,17.3,42.1,56.7,56.7,0,0,0,41.7,17.4q23.9,0,41.8-19.5C1072.7,361.6,1078.7,346.5,1078.7,329.2Z"/>
          <path d="M1185,127h38.1l-20.5,135.3c19.7-15,38.8-22.6,57.3-22.6q35.5,0,61,26.8t25.4,64q0,38.4-28.3,67.5t-65.3,29a72.6,72.6,0,0,1-41.1-12.6,74.2,74.2,0,0,1-27.5-32.4l-5.6,39.9h-38.1Zm120.9,202.2c0-16.6-5.7-30.7-17.1-42.4s-25.1-17.6-41-17.6-31.2,6.4-43,19-17.6,28.2-17.6,46.5c0,16.4,5.7,30.5,17.3,42.1a56.6,56.6,0,0,0,41.7,17.4c15.8,0,29.8-6.5,41.7-19.5S1305.9,346.5,1305.9,329.2Z"/>
          <path d="M1373.2,336.9q0-39.9,28.7-68.3c19.2-19,42.3-28.4,69.4-28.4s49.3,8.6,67.2,25.8,26.9,38.7,26.9,64.5q0,41.1-28,68.2c-18.6,18.2-42,27.2-70.1,27.2s-50.1-8.3-67.7-24.9S1373.2,363,1373.2,336.9Zm99.2-59q-26,0-43.7,17.2c-11.9,11.5-17.8,25.1-17.8,40.9s5,28.5,14.9,38,23.1,14.2,39.7,14.2q27.8,0,44.9-15.5c11.5-10.4,17.2-24,17.2-40.9s-5.1-28.2-15.5-38.5S1488.5,277.9,1472.4,277.9Z"/>
          <path d="M1611.3,244.2h41.8l34.5,52.6,49.4-52.6h46.6l-76.5,83.5,60.9,94.2h-41.3l-44.2-67.3-61.6,67.3h-47.8l90.2-97.7Z"/>
        </g>
      </g>
    </g>
  </g>
</svg>
