<svg id="Layer_1" data-name="Layer 1" xmlns="http://www.w3.org/2000/svg" viewBox="0 0 281.7 69">
  <title>ABBOXLOGOSVG</title>
  <g>
    <path d="M392.9,463.3l26.2,56.4H407.4L387,475.9l-20.3,43.8H354.9l26.3-56.4,5.8-12.6Z" transform="translate(-354.9 -450.7)"/>
    <path d="M447.7,491.9H436.1V508h14.5a4.8,4.8,0,0,0,4.9-4.9V491.9h11.7v8.8a18.9,18.9,0,0,1-19,19H424.3V472.9h11.8v7.2h13.8a5.3,5.3,0,0,0,3.9-1.6,5.6,5.6,0,0,0,1.7-4V464h-37l5.8-11.7h42.9v20a18.8,18.8,0,0,1-5.7,13.8A18.5,18.5,0,0,1,447.7,491.9Z" transform="translate(-354.9 -450.7)"/>
    <path d="M501.8,491.9H490.2V508h14.5a5,5,0,0,0,3.5-1.4,4.7,4.7,0,0,0,1.4-3.5V491.9h11.7v8.8a18.7,18.7,0,0,1-5.5,13.5,18.3,18.3,0,0,1-13.5,5.5H478.4V472.9h11.8v7.2H504a5.7,5.7,0,0,0,4-1.6,5.5,5.5,0,0,0,1.6-4V464h-37l5.8-11.7h42.9v20a18.8,18.8,0,0,1-5.7,13.8A18.5,18.5,0,0,1,501.8,491.9Z" transform="translate(-354.9 -450.7)"/>
    <path d="M560.4,450.7a31.2,31.2,0,0,1,13.1,2.8,33.3,33.3,0,0,1,10.7,7.3,34.8,34.8,0,0,1,9.8,24.4,35.2,35.2,0,0,1-9.8,24.5,35,35,0,0,1-10.7,7.3,33.1,33.1,0,0,1-26.2,0,35,35,0,0,1-10.7-7.3,35.5,35.5,0,0,1-7.2-11.1,33.7,33.7,0,0,1-2.6-13.4,34.4,34.4,0,0,1,2.6-13.4,36.2,36.2,0,0,1,7.2-11,33.3,33.3,0,0,1,10.7-7.3A31.2,31.2,0,0,1,560.4,450.7Zm-15.7,50.6a21.7,21.7,0,0,0,31.4,0,22.3,22.3,0,0,0,6.5-16.1,22.6,22.6,0,0,0-6.5-16.1,22,22,0,0,0-31.4,0,22.6,22.6,0,0,0-6.5,16.1A22.3,22.3,0,0,0,544.7,501.3Z" transform="translate(-354.9 -450.7)"/>
    <path d="M624.9,452.2h11.7v22.6l-9.2,11.5-2,2.5,2,2.4,9.2,11.5v17H624.9V506.8h0l-6.9-8.7-7,8.7v12.9H599.3v-17l9.2-11.5,2-2.4-2-2.5-9.2-11.5V452.2H611v18.5h.1l6.9,8.6,6.9-8.6V464h-5.8l5.8-11.7Z" transform="translate(-354.9 -450.7)"/>
  </g>
</svg>
