<svg xmlns="http://www.w3.org/2000/svg" xmlns:xlink="http://www.w3.org/1999/xlink" viewBox="0 0 1452.3 220">
  <defs>
    <style>
      .cls-1 {
        fill: url(#linear-gradient);
      }

      .cls-2 {
        fill: url(#linear-gradient-2);
      }

      .cls-3 {
        fill: url(#linear-gradient-3);
      }

      .cls-4 {
        fill: url(#linear-gradient-4);
      }
    </style>
    <linearGradient id="linear-gradient" y1="110" x2="220" y2="110" gradientUnits="userSpaceOnUse">
      <stop offset="0" stop-color="red"/>
      <stop offset="1" stop-color="#c1272d"/>
    </linearGradient>
    <linearGradient id="linear-gradient-2" x1="1154.81" y1="194.51" x2="1191.55" y2="194.51" xlink:href="#linear-gradient"/>
    <linearGradient id="linear-gradient-3" x1="1220.45" y1="109.6" x2="1257.18" y2="109.6" xlink:href="#linear-gradient"/>
    <linearGradient id="linear-gradient-4" x1="1295.12" y1="109.6" x2="1452.29" y2="109.6" xlink:href="#linear-gradient"/>
  </defs>
  <title>Asset 13</title>
  <g id="Layer_2" data-name="Layer 2">
    <g id="Layer_1-2" data-name="Layer 1">
      <g>
        <path class="cls-1" d="M0,0V220H.1l41.8-41.8L83.7,220H220V0ZM169.8,169.8H50.2V50.2H169.8Z"/>
        <g>
          <path d="M397.3,164.7h-60L322.9,215H286.2L350.3,4.2H384L448.4,215H411.7ZM387.6,131,367.2,59.6,347,131Z"/>
          <path d="M606.5,155.1q0,28.2-15.9,44.1c-10.7,10.5-25.3,15.8-44,15.8H467.7V4.2h70.5c17.2,0,30.1,4.3,38.7,13s12.8,21.2,12.8,37.9c0,21.5-6.1,36.7-18.1,45.8Q606.6,114.4,606.5,155.1Zm-102-67.5h27c7.5,0,13-2,16.6-6s5.4-10.2,5.4-18.7-1.8-15.2-5.4-19.1-9.1-5.9-16.6-5.9h-27Zm56.7,86.9c4.9-4.5,7.4-12.2,7.4-23s-2.6-19.2-7.7-23.8-12.1-7-20.9-7H504.5v60.6H540C549.2,181.3,556.3,179,561.2,174.5Z"/>
          <path d="M776,155.1q0,28.2-15.9,44.1c-10.7,10.5-25.3,15.8-44,15.8H637.2V4.2h70.5c17.2,0,30.1,4.3,38.7,13s12.8,21.2,12.8,37.9c0,21.5-6,36.7-18.1,45.8Q776.1,114.4,776,155.1ZM674,87.6h27.1q11.1,0,16.5-6c3.6-4,5.4-10.2,5.4-18.7s-1.8-15.2-5.4-19.1-9.1-5.9-16.5-5.9H674Zm56.7,86.9c4.9-4.5,7.4-12.2,7.4-23s-2.6-19.2-7.7-23.8-12.1-7-20.9-7H674v60.6h35.5C718.7,181.3,725.8,179,730.7,174.5Z"/>
          <path d="M839.1,205.5c-13.5-9.1-24.1-22-31.8-38.5s-11.4-35.7-11.4-57.4,3.8-40.8,11.4-57.4,18.3-29.4,31.8-38.5S868.1,0,885.3,0,918,4.5,931.6,13.5s24.1,21.9,31.7,38.6,11.5,35.8,11.5,57.5-3.9,40.9-11.5,57.5-18.2,29.5-31.7,38.6-29,13.5-46.3,13.5S852.7,214.6,839.1,205.5Zm83.6-43.2c8.6-13.3,12.9-30.8,12.9-52.7s-4.3-39.4-12.9-52.7S901.6,37,885.3,37,856.6,43.7,848,56.9s-13,30.8-13,52.7,4.4,39.4,13,52.7,21.1,19.9,37.3,19.9S914,175.5,922.7,162.3Z"/>
          <path d="M1041,107.2,979.3,4.2h39.1l42.2,70.2,41.8-70.2h39.2l-61.5,103L1144.6,215h-39.2l-44.8-75.3L1015.4,215H976.3Z"/>
          <path class="cls-2" d="M1154.8,174h36.7v41h-36.7Z"/>
          <path class="cls-3" d="M1220.4,4.2h36.8V215h-36.8Z"/>
          <path class="cls-4" d="M1295.1,4.2h68.1c17.2,0,32.6,4.2,46,12.7s24,20.5,31.6,36.4,11.5,34.6,11.5,56.3-3.8,40.5-11.5,56.3-18.1,28-31.6,36.4-28.8,12.7-46,12.7h-68.1Zm68.1,177.1c16,0,28.2-6.4,36.4-19s12.3-30.2,12.3-52.7-4.1-40-12.3-52.7-20.4-19-36.4-19h-31.3V181.3Z"/>
        </g>
      </g>
    </g>
  </g>
</svg>
