<svg id="Layer_1" data-name="Layer 1" xmlns="http://www.w3.org/2000/svg" viewBox="0 0 388.2 102.2">
  <defs>
    <style>
      .cls-1 {
        fill: #b51200;
      }

      .cls-2 {
        fill: #fff;
      }
    </style>
  </defs>
  <title>FIX LOGO ABBOX.ID</title>
  <g>
    <g>
      <rect class="cls-1" width="102.2" height="102.2"/>
      <path class="cls-2" d="M324.5,464.7a28.5,28.5,0,0,0-2.7-6.3,14.4,14.4,0,0,0-5.6-5.3c-2.5-1.6-6.1-2.8-10.7-3.7l-2.7-.5h-30L245,550.7v.4h36.1l5.1-21.9H306l5,21.9h36.2v-.5Zm-46.3,49.5,12.7-5.4,5.2-22.4,6.4,27.8Z" transform="translate(-245 -448.9)"/>
    </g>
    <g>
      <path d="M377.3,505.7l-4.9,15H366l16.1-47.5h7.4l16.2,47.5h-6.5l-5.1-15Zm15.5-4.8-4.6-13.6c-1.1-3.1-1.8-5.9-2.5-8.7h-.1c-.7,2.8-1.5,5.7-2.4,8.6l-4.6,13.7Z" transform="translate(-245 -448.9)"/>
      <path d="M412,520.7c.1-2.4.3-5.8.3-8.8V470.7h6.1v21.4h.1c2.2-3.8,6.2-6.3,11.7-6.3,8.4,0,14.4,7.1,14.3,17.4,0,12.2-7.7,18.2-15.3,18.2-4.9,0-8.8-1.9-11.4-6.4h-.2l-.3,5.7Zm6.4-13.7a8.5,8.5,0,0,0,.3,2.3,9.6,9.6,0,0,0,9.3,7.2c6.4,0,10.3-5.3,10.3-13.1s-3.5-12.7-10.1-12.7a10,10,0,0,0-9.5,7.6,17,17,0,0,0-.3,2.6Z" transform="translate(-245 -448.9)"/>
      <path d="M452,520.7c.2-2.4.3-5.8.3-8.8V470.7h6.1v21.4h.2c2.2-3.8,6.1-6.3,11.6-6.3,8.4,0,14.4,7.1,14.4,17.4,0,12.2-7.7,18.2-15.3,18.2-4.9,0-8.9-1.9-11.4-6.4h-.2l-.3,5.7Zm6.4-13.7a16,16,0,0,0,.3,2.3,9.6,9.6,0,0,0,9.3,7.2c6.5,0,10.4-5.3,10.4-13.1s-3.6-12.7-10.2-12.7a9.9,9.9,0,0,0-9.4,7.6,15.9,15.9,0,0,0-.4,2.6Z" transform="translate(-245 -448.9)"/>
      <path d="M523.2,503.3c0,12.6-8.7,18.1-17,18.1s-16.3-6.7-16.3-17.5,7.5-18.1,16.9-18.1S523.2,492.9,523.2,503.3Zm-27,.4c0,7.5,4.3,13.1,10.3,13.1s10.4-5.6,10.4-13.2c0-5.8-2.9-13.1-10.2-13.1S496.2,497.2,496.2,503.7Z" transform="translate(-245 -448.9)"/>
      <path d="M532.9,486.6l4.9,7.3,3.4,5.6h.2c1.1-2.1,2.3-3.8,3.4-5.7l4.8-7.2h6.7l-11.6,16.5,11.9,17.6h-7l-5-7.7-3.7-5.9h-.1c-1.1,2-2.3,3.8-3.6,5.9l-4.9,7.7h-6.9l12.2-17.4L526,486.6Z" transform="translate(-245 -448.9)"/>
      <path d="M561.1,517a4.2,4.2,0,0,1,4.3-4.4,4.4,4.4,0,0,1-.1,8.8A4.2,4.2,0,0,1,561.1,517Z" transform="translate(-245 -448.9)"/>
      <path d="M583.5,473.2v47.5h-6.1V473.2Z" transform="translate(-245 -448.9)"/>
      <path d="M594.2,473.8a98.2,98.2,0,0,1,13-.9c8.8,0,15.1,2,19.2,5.9s6.7,9.3,6.7,17-2.4,14.1-6.8,18.5-11.8,6.8-21,6.8a88.3,88.3,0,0,1-11.1-.6Zm6.1,42a36.4,36.4,0,0,0,6.2.4c13.1,0,20.2-7.4,20.2-20.2.1-11.2-6.2-18.3-19.2-18.3a30.8,30.8,0,0,0-7.2.7Z" transform="translate(-245 -448.9)"/>
    </g>
  </g>
</svg>
