<svg xmlns="http://www.w3.org/2000/svg" viewBox="0 0 2852.4 1000">
  <defs>
    <style>
      .cls-1 {
        fill: #b51200;
      }

      .cls-2 {
        fill: #fff;
      }
    </style>
  </defs>
  <title>Asset 10</title>
  <g id="Layer_2" data-name="Layer 2">
    <g id="Layer_1-2" data-name="Layer 1">
      <g>
        <g>
          <rect class="cls-1" x="146.4" y="146.4" width="707.1" height="707.11" transform="translate(-207.1 500) rotate(-45)"/>
          <g>
            <polygon class="cls-2" points="809.9 521.6 685.4 521.6 642.4 478.5 580.2 415.9 500 335.3 500 210.1 642.5 353.3 704.7 415.9 809.9 521.6"/>
            <polygon class="cls-2" points="500 210.1 500 335.3 419.8 415.9 357.6 478.5 314.6 521.6 190.1 521.6 295.3 415.9 357.5 353.3 500 210.1"/>
          </g>
          <polygon class="cls-2" points="642.4 478.5 500 621.6 500 496.5 580.2 415.9 642.4 478.5"/>
          <polygon class="cls-2" points="500 496.5 500 621.6 357.6 478.5 419.8 415.9 500 496.5"/>
        </g>
        <g>
          <path d="M1182.9,350.3h35.8L1329,649.7h-45.3l-82.9-241.5-83,241.5h-45.3Zm-59.5,193.8h157.4V584H1123.4Z"/>
          <path d="M1374.3,350.3h41.8V649.7h-41.8ZM1399,610.8h81.1c21.3,0,36.8-4.1,46.6-12.2s14.6-19.5,14.6-34.2v-.6c0-10.1-1.8-18.8-5.3-26.1a36,36,0,0,0-16.6-16.8c-7.5-3.9-17.2-5.9-29-5.9H1399V477.2h91.4c15.5,0,27.2-3.7,35.1-11s11.9-18,11.9-32.3-4.4-26.1-13.2-33.5-22-11.2-39.5-11.2H1399V350.3h93.3q29,0,48.6,9.9c13,6.6,22.7,15.9,29.2,28s9.7,26.5,9.7,43.3a70.6,70.6,0,0,1-6,28.9,60.3,60.3,0,0,1-18.2,23c-8.2,6.4-18.3,10.7-30.4,12.9a66,66,0,0,1,31.3,12.9,66.9,66.9,0,0,1,20.2,25.4,78.6,78.6,0,0,1,7,32.9v.6c0,16.2-3.6,30.5-10.7,42.9a72.6,72.6,0,0,1-30.7,28.6c-13.3,6.7-28.8,10.1-46.5,10.1H1399Z"/>
          <path d="M1646.5,350.3h41.8V649.7h-41.8Zm24.7,260.5h81.1c21.3,0,36.8-4.1,46.5-12.2s14.6-19.5,14.6-34.2v-.6c0-10.1-1.7-18.8-5.2-26.1a36,36,0,0,0-16.6-16.8c-7.6-3.9-17.2-5.9-29-5.9h-91.4V477.2h91.4c15.5,0,27.2-3.7,35.1-11s11.8-18,11.8-32.3-4.4-26.1-13.2-33.5-21.9-11.2-39.5-11.2h-85.6V350.3h93.2q29.1,0,48.6,9.9c13,6.6,22.8,15.9,29.2,28s9.7,26.5,9.7,43.3a70.6,70.6,0,0,1-6,28.9,58.4,58.4,0,0,1-18.2,23c-8.1,6.4-18.3,10.7-30.3,12.9a65.6,65.6,0,0,1,51.4,38.3,77.1,77.1,0,0,1,7,32.9v.6c0,16.2-3.5,30.5-10.7,42.9a71.8,71.8,0,0,1-30.6,28.6c-13.4,6.7-28.9,10.1-46.6,10.1h-96.7Z"/>
          <path d="M1956.3,639.1a95.2,95.2,0,0,1-37-38.7q-13-25-13-58V457.6q0-33,13-58a95.2,95.2,0,0,1,37-38.7q23.9-13.6,55.2-13.7t55.1,13.7a93.9,93.9,0,0,1,37,38.7q13.1,25,13.1,58v84.8q0,33-13.1,58a93.9,93.9,0,0,1-37,38.7q-23.9,13.6-55.1,13.7T1956.3,639.1Zm87.8-36.1a55.4,55.4,0,0,0,21.8-23.6c5.2-10.3,7.7-22.1,7.7-35.5V456.2c0-13.5-2.5-25.3-7.7-35.6a55.4,55.4,0,0,0-21.8-23.6c-9.4-5.6-20.3-8.4-32.6-8.4s-23.3,2.8-32.7,8.4a56,56,0,0,0-21.8,23.6c-5.1,10.3-7.7,22.1-7.7,35.6v87.7c0,13.4,2.6,25.2,7.7,35.5a56,56,0,0,0,21.8,23.6q14.1,8.4,32.7,8.4C2023.8,611.4,2034.7,608.6,2044.1,603Z"/>
          <path d="M2249.7,478.6l75.1-128.3h47.1l-99,162.1-80.3,137.3h-47.1Zm1.8,39.5-6.4-10.3L2148,350.3h47.1l72.3,121.9,6.8,11.1,102.3,166.4h-47.2Z"/>
          <path d="M2420.7,605.6h44.1v44.1h-44.1Z"/>
          <path d="M2569.6,649.7h-42V350.3h42Z"/>
          <path d="M2643.7,350.3h42V649.7h-42Zm28.4,259.4h67.7q33.1,0,51.4-17.2c12.1-11.4,18.2-27.6,18.2-48.4V455.9c0-20.8-6.1-37-18.2-48.4s-29.3-17.2-51.4-17.2h-67.7v-40h66.5q36,0,61.6,12.6a88.4,88.4,0,0,1,38.9,36.6c8.9,16.1,13.3,35.4,13.3,58.1v84.8c0,22.7-4.4,42-13.3,58.1s-22,28.2-39.1,36.6-37.6,12.6-61.6,12.6h-66.3Z"/>
        </g>
      </g>
    </g>
  </g>
</svg>
