<svg id="Layer_1" data-name="Layer 1" xmlns="http://www.w3.org/2000/svg" viewBox="0 0 3260 1000">
  <defs>
    <style>
      .cls-1 {
        fill: #b51200;
      }

      .cls-2 {
        fill: #fff;
      }
    </style>
  </defs>
  <title>LogoAbbox.ID</title>
  <g>
    <g>
      <rect class="cls-1" width="1000" height="1000"/>
      <g>
        <polygon class="cls-2" points="500 273.9 500 423.2 423.2 500 348.5 574.6 281.1 642.1 132.3 642.1 132.1 641.8 273.9 500 348.5 425.4 500 273.9 500 273.9"/>
        <polygon class="cls-2" points="867.9 641.8 867.7 642.1 718.9 642.1 500 423.2 500 273.9 500 273.9 651.5 425.4 726.1 500 867.9 641.8"/>
        <polygon class="cls-2" points="500 576.8 500 726.1 500 726.1 348.5 574.6 273.9 500 348.5 425.4 500 576.8"/>
        <polygon class="cls-2" points="726.1 500 651.5 574.6 500 726.1 500 726.1 500 576.8 576.8 500 651.5 425.4 726.1 500"/>
      </g>
    </g>
    <g>
      <path d="M-338.5-1241.9h43.8l135.2,366.6H-215l-101.6-295.8L-418.2-875.3h-55.5Zm-72.9,237.2h192.9v49H-411.4Z" transform="translate(1553.8 1526.2)"/>
      <path d="M-104.1-1241.9h51.2v366.6h-51.2ZM-73.8-923H25.5q39.2,0,57-14.8c11.9-10,17.9-23.9,17.9-41.9v-.8c0-12.4-2.1-23.1-6.4-32A44.8,44.8,0,0,0,73.7-1033c-9.3-4.8-21.1-7.2-35.6-7.2H-73.8v-46.4H38.1c19,0,33.4-4.5,43-13.4s14.5-22.1,14.5-39.5-5.4-32.1-16.1-41.1-26.9-13.7-48.4-13.7H-73.8v-47.6H40.4q35.5,0,59.5,12.1t35.8,34.3q11.9,22.2,11.9,52.9a88.4,88.4,0,0,1-7.3,35.5,73.4,73.4,0,0,1-22.4,28.2c-10,7.8-22.4,13.1-37.1,15.7,14.7,2.2,27.5,7.5,38.3,15.8a82.5,82.5,0,0,1,24.7,31.1,96,96,0,0,1,8.6,40.4v.7q0,29.9-13.2,52.5t-37.5,35q-24.5,12.5-57,12.4H-73.8Z" transform="translate(1553.8 1526.2)"/>
      <path d="M229.3-1241.9h51.1v366.6H229.3ZM259.5-923h99.3q39.1,0,57-14.8c12-10,17.9-23.9,17.9-41.9v-.8c0-12.4-2.1-23.1-6.4-32A44.8,44.8,0,0,0,407-1033c-9.2-4.8-21.1-7.2-35.5-7.2h-112v-46.4h112c18.9,0,33.3-4.5,42.9-13.4s14.5-22.1,14.5-39.5-5.3-32.1-16.1-41.1-26.9-13.7-48.4-13.7H259.5v-47.6H373.7c23.7,0,43.6,4,59.5,12.1s27.9,19.5,35.8,34.3,11.9,32.4,11.9,52.9a88.4,88.4,0,0,1-7.3,35.5,73.4,73.4,0,0,1-22.4,28.2c-10,7.8-22.4,13.1-37.1,15.7,14.7,2.2,27.5,7.5,38.3,15.8a82.5,82.5,0,0,1,24.7,31.1,96,96,0,0,1,8.6,40.4v.7q0,29.9-13.1,52.5a88.5,88.5,0,0,1-37.6,35q-24.5,12.5-57,12.4H259.5Z" transform="translate(1553.8 1526.2)"/>
      <path d="M608.7-888.3a115,115,0,0,1-45.3-47.4c-10.6-20.4-16-44.1-16-71v-103.9c0-26.8,5.4-50.5,16-70.9a115,115,0,0,1,45.3-47.4q29.3-16.8,67.6-16.8t67.5,16.8a115,115,0,0,1,45.3,47.4c10.7,20.4,16,44.1,16,70.9v103.9q0,40.4-16,71a115,115,0,0,1-45.3,47.4q-29.2,16.8-67.5,16.8T608.7-888.3Zm107.5-44.1a69,69,0,0,0,26.8-29c6.3-12.5,9.4-27,9.4-43.5v-107.4c0-16.5-3.1-31-9.4-43.5a69,69,0,0,0-26.8-29Q699-1195,676.3-1195c-15.2,0-28.5,3.4-40,10.2a68.8,68.8,0,0,0-26.7,29c-6.3,12.5-9.5,27-9.5,43.5v107.4c0,16.5,3.2,31,9.5,43.5a68.8,68.8,0,0,0,26.7,29c11.5,6.8,24.8,10.2,40,10.2S704.7-925.6,716.2-932.4Z" transform="translate(1553.8 1526.2)"/>
      <path d="M968-1084.8l92-157.1h57.7L996.5-1043.5,898.1-875.3H840.4Zm2.2,48.4-7.8-12.6-119-192.9h57.8l88.5,149.2L998-1079l125.3,203.7h-57.8Z" transform="translate(1553.8 1526.2)"/>
      <path d="M1177.5-929.3h53.9v54h-53.9Z" transform="translate(1553.8 1526.2)"/>
      <path d="M1359.8-875.3h-51.5v-366.6h51.5Z" transform="translate(1553.8 1526.2)"/>
      <path d="M1450.5-1241.9H1502v366.6h-51.5Zm34.8,317.7h83q40.5,0,62.9-21.1t22.3-59.4v-107.9q0-38.2-22.3-59.3t-62.9-21.1h-83v-48.9h81.5q44.1,0,75.4,15.4c20.8,10.2,36.7,25.2,47.6,44.8s16.4,43.4,16.4,71.1v103.9q0,41.7-16.4,71.1T1642-890.7q-31.4,15.5-75.5,15.4h-81.2Z" transform="translate(1553.8 1526.2)"/>
    </g>
  </g>
</svg>
