<svg xmlns="http://www.w3.org/2000/svg" viewBox="0 0 1784.1 350">
  <defs>
    <style>
      .cls-1 {
        fill: #b51200;
      }
    </style>
  </defs>
  <title>Asset 2</title>
  <g id="Layer_2" data-name="Layer 2">
    <g id="Layer_1-2" data-name="Layer 1">
      <path class="cls-1" d="M343.5,159.2,190.8,6.5a22.4,22.4,0,0,0-31.6,0L6.5,159.2a22.4,22.4,0,0,0,0,31.6L159.2,343.5a22.4,22.4,0,0,0,31.6,0L343.5,190.8A22.4,22.4,0,0,0,343.5,159.2ZM140.9,85.4,168,58.3a9.8,9.8,0,0,1,14,0l27.1,27.1a10,10,0,0,1,0,14.1L182,126.6a10,10,0,0,1-14,0L140.9,99.5A10,10,0,0,1,140.9,85.4Zm148.8,96.4L178.2,293.4a4.9,4.9,0,0,1-6.4,0L60.3,181.8a10.8,10.8,0,0,1,0-15.4L86,140.7a10.8,10.8,0,0,1,15.4,0l68.8,68.7a6.7,6.7,0,0,0,9.6,0l68.8-68.7a10.8,10.8,0,0,1,15.4,0l25.7,25.7A10.8,10.8,0,0,1,289.7,181.8Z"/>
      <g>
        <g>
          <path d="M506.3,2.6h27.5l84.4,229.1H583.5L520.1,46.9,456.6,231.7H421.9ZM460.8,150.9H581.3v30.5H460.8Z"/>
          <path d="M652.9,2.6h32V231.7h-32Zm18.9,199.3h62.1c16.2,0,28.1-3.1,35.6-9.3s11.1-14.9,11.1-26.1V166c0-7.8-1.3-14.4-4-20a27.4,27.4,0,0,0-12.7-12.9c-5.7-2.9-13.1-4.4-22.2-4.4H671.8v-29h69.9c11.9,0,20.9-2.8,26.9-8.4s9.1-13.8,9.1-24.7-3.4-20-10.1-25.7-16.8-8.5-30.3-8.5H671.8V2.6h71.3c14.9,0,27.3,2.5,37.2,7.6a50,50,0,0,1,22.4,21.4c4.9,9.2,7.4,20.3,7.4,33.1a53,53,0,0,1-4.6,22.1,45.7,45.7,0,0,1-13.9,17.7c-6.3,4.9-14,8.1-23.2,9.8a50.5,50.5,0,0,1,39.3,29.3,59.4,59.4,0,0,1,5.4,25.2v.5c0,12.4-2.7,23.3-8.2,32.8A56,56,0,0,1,781.4,224c-10.2,5.1-22,7.7-35.6,7.7h-74Z"/>
          <path d="M861.2,2.6h31.9V231.7H861.2Zm18.9,199.3h62c16.3,0,28.2-3.1,35.6-9.3s11.2-14.9,11.2-26.1V166c0-7.8-1.3-14.4-4-20a27.8,27.8,0,0,0-12.7-12.9c-5.7-2.9-13.2-4.4-22.2-4.4H880.1v-29H950c11.9,0,20.8-2.8,26.9-8.4s9-13.8,9-24.7-3.3-20-10-25.7-16.9-8.5-30.3-8.5H880.1V2.6h71.3c14.8,0,27.2,2.5,37.2,7.6A50,50,0,0,1,1011,31.6c4.9,9.2,7.4,20.3,7.4,33.1a53,53,0,0,1-4.6,22.1,45.7,45.7,0,0,1-13.9,17.7c-6.3,4.9-14,8.1-23.3,9.8a50.4,50.4,0,0,1,39.4,29.3,59.4,59.4,0,0,1,5.4,25.2v.5c0,12.4-2.7,23.3-8.2,32.8A56,56,0,0,1,989.7,224c-10.2,5.1-22,7.7-35.6,7.7h-74Z"/>
          <path d="M1098.3,223.6A72.1,72.1,0,0,1,1070,194c-6.7-12.8-10-27.6-10-44.4V84.7c0-16.8,3.3-31.6,10-44.3a71.8,71.8,0,0,1,28.3-29.7c12.2-7,26.2-10.4,42.2-10.4s30,3.4,42.2,10.4A71.8,71.8,0,0,1,1211,40.4c6.7,12.7,10,27.5,10,44.3v64.9c0,16.8-3.3,31.6-10,44.4a72.1,72.1,0,0,1-28.3,29.6c-12.2,7-26.2,10.5-42.2,10.5S1110.5,230.6,1098.3,223.6Zm67.2-27.6a43.1,43.1,0,0,0,16.7-18.1c3.9-7.8,5.9-16.9,5.9-27.2V83.6c0-10.3-2-19.4-5.9-27.2a43.7,43.7,0,0,0-16.7-18.1c-7.2-4.3-15.5-6.4-25-6.4s-17.8,2.1-25,6.4a43.7,43.7,0,0,0-16.7,18.1c-3.9,7.8-5.9,16.9-5.9,27.2v67.1c0,10.3,2,19.4,5.9,27.2a43.1,43.1,0,0,0,16.7,18.1c7.2,4.3,15.5,6.4,25,6.4S1158.3,200.3,1165.5,196Z"/>
          <path d="M1322.8,100.8l57.5-98.2h36.1l-75.8,124-61.5,105.1h-36Zm1.4,30.2-4.9-7.9L1245,2.6h36l55.3,93.3,5.2,8.5,78.3,127.3h-36Z"/>
          <path d="M1453.7,198h33.7v33.7h-33.7Z"/>
          <path d="M1567.6,231.7h-32.1V2.6h32.1Z"/>
          <path d="M1624.3,2.6h32.2V231.7h-32.2Zm21.8,198.5h51.8c16.9,0,30-4.4,39.3-13.1s14-21.2,14-37.1V83.4c0-15.9-4.7-28.3-14-37.1s-22.4-13.1-39.3-13.1h-51.8V2.6H1697q27.6,0,47.1,9.6a67.6,67.6,0,0,1,29.8,28.1q10.2,18.5,10.2,44.4v64.9c0,17.3-3.4,32.2-10.2,44.4a67.3,67.3,0,0,1-29.9,28.1c-13.1,6.4-28.8,9.6-47.2,9.6h-50.7Z"/>
        </g>
        <g>
          <path d="M442.1,249.8h16.4c6.9,0,12.2,1.7,16.1,5.1s5.7,8.2,5.7,14.3c0,7.9-2.6,14.1-7.7,18.6s-12.1,6.8-20.8,6.8h-14l-6.5,30h-5.1Zm10,40.1c7.3,0,12.9-1.8,16.9-5.2s5.9-8.5,5.9-15.1c0-4.8-1.5-8.5-4.4-11.2s-7.3-3.9-13-3.9H446.3l-7.6,35.4Z"/>
          <path d="M487.6,304q0,8.3,4.2,12.9c2.8,3.1,6.8,4.7,11.9,4.7s9.4-1.5,14.8-4.4l-1,5a30.1,30.1,0,0,1-14.5,3.7c-6.5,0-11.5-1.9-15.1-5.8s-5.4-9.4-5.4-16.5a37.7,37.7,0,0,1,3.9-17.1,33.9,33.9,0,0,1,10.5-12.2,24.4,24.4,0,0,1,14-4.4c4.6,0,8.3,1.1,11.2,3.4a11.5,11.5,0,0,1,4.2,9.4c0,6.1-3.1,10.6-9.1,13.5s-15.9,4.4-29.5,4.6Zm.8-7.6c11.2,0,19.4-1,24.8-3.1s8-5.4,8-10.1-3.7-9-11-9c-5.3,0-9.9,2.1-13.9,6.2A31.5,31.5,0,0,0,488.4,296.4Z"/>
          <path d="M542.1,271.2h4.8L545,283.8h.2c2.4-4.7,4.9-8.2,7.6-10.5a14,14,0,0,1,9.4-3.4,12.5,12.5,0,0,1,5.7,1.3l-.9,4.9h-.2a10.1,10.1,0,0,0-5.5-1.9c-4,0-7.8,2.5-11.6,7.6a46.9,46.9,0,0,0-8.2,19.2l-5.1,23.6h-4.9l7.5-34.7A140.7,140.7,0,0,0,542.1,271.2Z"/>
          <path d="M567.2,317.2a24,24,0,0,0,6.2,3.1,18.6,18.6,0,0,0,6.8,1.3c4.1,0,7.3-.9,9.5-2.6s3.4-4.3,3.4-7.6a8.4,8.4,0,0,0-1.9-5.7,31,31,0,0,0-7-5.6c-4.1-2.5-7-4.8-8.6-6.9a12.4,12.4,0,0,1-2.4-7.7,14.4,14.4,0,0,1,4.9-11.2c3.4-3,7.5-4.4,12.6-4.4a32.8,32.8,0,0,1,6.5.7,21.8,21.8,0,0,1,6.1,2l-1.1,5a21.7,21.7,0,0,0-12-3.4,13.1,13.1,0,0,0-8.6,2.9,9.9,9.9,0,0,0-3.4,7.7,9.3,9.3,0,0,0,1.9,6.1q1.8,2.4,6.9,5.4c4,2.4,6.9,4.7,8.6,6.9a12.2,12.2,0,0,1,2.5,7.6,13.5,13.5,0,0,1-4.9,11c-3.3,2.8-7.8,4.1-13.4,4.1a25.6,25.6,0,0,1-13.6-3.6Z"/>
          <path d="M629.6,325.9c-5.8,0-10.5-1.8-13.8-5.4s-5-8.8-5-15.2a43,43,0,0,1,3.8-18A31,31,0,0,1,625,274.5a23.8,23.8,0,0,1,14.2-4.6c6,0,10.6,1.8,13.9,5.5s4.8,8.7,4.8,15a44.7,44.7,0,0,1-3.6,18.1,31.3,31.3,0,0,1-10.2,12.8A24.5,24.5,0,0,1,629.6,325.9Zm.5-4.3a19.1,19.1,0,0,0,11.5-4,27,27,0,0,0,8.3-11,39.4,39.4,0,0,0,3-15.6c0-5.5-1.2-9.7-3.7-12.5s-6-4.3-10.5-4.3a18.8,18.8,0,0,0-11.4,4,26.6,26.6,0,0,0-8.4,11.1,39.3,39.3,0,0,0-3,15.5c0,5.3,1.2,9.4,3.8,12.3S625.7,321.6,630.1,321.6Z"/>
          <path d="M675.9,271.2h4.8l-2.5,15.2h.2c6.8-11,14.3-16.5,22.4-16.5,4.6,0,8,1.1,10.2,3.5s3.2,5.9,3.2,10.8a36.6,36.6,0,0,1-.4,4.2c-.3,1.7-2.8,13.8-7.5,36.2h-4.9l6.3-30.7a55,55,0,0,0,1.4-8.8c0-7.3-3-10.9-9.2-10.9-2.7,0-5.9,1.3-9.4,3.7a37.3,37.3,0,0,0-9.5,9.5,32.2,32.2,0,0,0-5.5,12.3l-5.4,24.9h-4.9l8.3-38.6A108.7,108.7,0,0,0,675.9,271.2Z"/>
          <path d="M759,324.6a141.2,141.2,0,0,1,2.3-17.1h-.2c-3.3,6-6.6,10.6-10.1,13.7a16.9,16.9,0,0,1-11.6,4.7c-4.8,0-8.4-1.6-11-5s-3.9-8-3.9-14a42.5,42.5,0,0,1,4.3-19,32.3,32.3,0,0,1,11.7-13.3,29.9,29.9,0,0,1,16.5-4.7,84.2,84.2,0,0,1,16.4,1.9l-7,33.7c-.5,2.6-1.1,5.9-1.6,9.9a79.5,79.5,0,0,0-.8,9.2Zm8.8-49.2a54,54,0,0,0-11.2-1.2,25.1,25.1,0,0,0-13.8,4.1,26.9,26.9,0,0,0-9.7,11.5,37.1,37.1,0,0,0-3.5,16.6c0,10.1,3.6,15.2,10.7,15.2,2.9,0,5.9-1.4,9.2-4.2a44.4,44.4,0,0,0,9.1-11.5,55.4,55.4,0,0,0,6-15.1Z"/>
          <path d="M795.8,245.5h4.9l-13.6,63.6a55,55,0,0,0-1.2,9.1c0,2.1,1.1,3.1,3.2,3.1a14.2,14.2,0,0,0,4.5-.8l-.9,4a11.9,11.9,0,0,1-5.1,1.2c-4.5,0-6.7-2.4-6.7-7.1a31.5,31.5,0,0,1,.7-6.1C782,310,786.8,287.7,795.8,245.5Z"/>
          <path d="M848.4,249.8h18.3c5.3,0,9.6,1.4,12.7,4.3s4.7,6.7,4.7,11.6-1.5,10-4.5,13.5a19.3,19.3,0,0,1-12.2,6.8v.3a14.4,14.4,0,0,1,9,5.4,15.9,15.9,0,0,1,3.2,10.2c0,7.2-2.2,12.9-6.7,16.8s-10.8,5.9-19.1,5.9H832.5Zm4.9,70.1c13.9,0,20.9-5.9,20.9-17.6,0-4.5-1.5-8-4.6-10.5s-7.4-3.6-13.1-3.6H845.4l-6.6,31.7Zm5.1-36.4c6.5,0,11.5-1.6,15-4.6s5.3-7.3,5.3-12.6c0-3.8-1.1-6.7-3.5-8.8s-5.5-3-9.7-3H852.7l-6.3,29Z"/>
          <path d="M905.9,245.5h4.9l-13.5,63.6a48,48,0,0,0-1.3,9.1c0,2.1,1.1,3.1,3.3,3.1a13.2,13.2,0,0,0,4.4-.8l-.9,4a11.9,11.9,0,0,1-5.1,1.2c-4.5,0-6.7-2.4-6.7-7.1a31.5,31.5,0,0,1,.7-6.1Q892.5,308.8,905.9,245.5Z"/>
          <path d="M932.2,325.9q-8.9,0-13.8-5.4c-3.4-3.7-5-8.8-5-15.2a43,43,0,0,1,3.8-18,30.8,30.8,0,0,1,10.3-12.8,24.1,24.1,0,0,1,14.3-4.6c5.9,0,10.6,1.8,13.8,5.5s4.9,8.7,4.9,15a43.1,43.1,0,0,1-3.7,18.1,29.7,29.7,0,0,1-10.2,12.8A24,24,0,0,1,932.2,325.9Zm.5-4.3a18.8,18.8,0,0,0,11.4-4,26.1,26.1,0,0,0,8.3-11,39.5,39.5,0,0,0,3.1-15.6c0-5.5-1.3-9.7-3.8-12.5s-6-4.3-10.5-4.3a19.3,19.3,0,0,0-11.4,4,26.5,26.5,0,0,0-8.3,11.1,37.7,37.7,0,0,0-3.1,15.5c0,5.3,1.3,9.4,3.8,12.3A13,13,0,0,0,932.7,321.6Z"/>
          <path d="M964.5,341a29,29,0,0,0,14.5,4.2c6.4,0,11.4-1.8,15-5.3s6.4-9.2,8.2-17.1l3.5-15.1h-.3c-3.6,6.5-7,11.1-10.4,14a17,17,0,0,1-11,4.2c-4.9,0-8.5-1.6-11.1-5s-3.8-8-3.8-14.2a40.3,40.3,0,0,1,4.3-18.8,33.2,33.2,0,0,1,11.8-13.3,29.9,29.9,0,0,1,16.5-4.7,62.9,62.9,0,0,1,7.6.5,55.1,55.1,0,0,1,8.6,1.4l-10.5,49.1c-2.2,10.3-5.7,17.7-10.3,22.1s-10.9,6.7-19.1,6.7a29.7,29.7,0,0,1-14.4-3.7Zm47.8-65.6a51.1,51.1,0,0,0-11.4-1.2,24.1,24.1,0,0,0-13.5,4.1,28.7,28.7,0,0,0-9.8,11.4,36.9,36.9,0,0,0-3.5,16.1c0,10.5,3.5,15.8,10.5,15.8,3.1,0,6.3-1.5,9.7-4.3a43,43,0,0,0,9.1-11.6,47.8,47.8,0,0,0,5.7-14.9Z"/>
        </g>
      </g>
    </g>
  </g>
</svg>
