<svg xmlns="http://www.w3.org/2000/svg" viewBox="0 0 3260 1000">
  <defs>
    <style>
      .cls-1 {
        fill: #b51200;
      }

      .cls-2 {
        fill: #fff;
      }
    </style>
  </defs>
  <title>LogoAbbox.ID Alt</title>
  <g id="Layer_2" data-name="Layer 2">
    <g id="Layer_1-2" data-name="Layer 1">
      <g>
        <g>
          <rect class="cls-1" width="1000" height="1000"/>
          <g>
            <g>
              <polygon class="cls-2" points="500 75 500 247.4 411.2 336.2 325 422.4 247.1 500.3 75.3 500.3 75 500 238.8 336.2 325 250 500 75 500 75"/>
              <polygon class="cls-2" points="925 500 924.7 500.3 752.9 500.3 500 247.4 500 75 500 75 675 250 761.2 336.2 925 500"/>
              <polygon class="cls-2" points="500 424.9 500 597.4 500 597.4 325 422.4 238.8 336.2 325 250 500 424.9"/>
              <polygon class="cls-2" points="761.2 336.2 675 422.4 500 597.4 500 597.4 500 424.9 588.8 336.2 675 250 761.2 336.2"/>
            </g>
            <g>
              <polygon class="cls-2" points="500 925 500 752.6 411.2 663.8 325 577.6 247.1 499.7 75.3 499.7 75 500 238.8 663.8 325 750 500 925 500 925"/>
              <polygon class="cls-2" points="925 500 924.7 499.7 752.9 499.7 500 752.6 500 925 500 925 675 750 761.2 663.8 925 500"/>
            </g>
          </g>
        </g>
        <g>
          <path d="M1215.3,316.7h43.9l135.1,366.6h-55.4L1237.2,387.6,1135.6,683.3h-55.4ZM1142.4,554h192.9v48.9H1142.4Z"/>
          <path d="M1449.8,316.7H1501V683.3h-51.2ZM1480,635.6h99.4q39,0,57-14.8c11.9-9.9,17.9-23.9,17.9-41.9v-.7c0-12.5-2.2-23.2-6.5-32.1a44.3,44.3,0,0,0-20.3-20.5c-9.2-4.8-21.1-7.2-35.5-7.2H1480V472h112c19,0,33.3-4.4,43-13.3s14.5-22.1,14.5-39.6-5.4-32.1-16.2-41.1-26.9-13.6-48.4-13.6H1480V316.7h114.3q35.5,0,59.5,12.1c15.9,8.1,27.9,19.5,35.8,34.3s11.8,32.4,11.8,52.9a86.4,86.4,0,0,1-7.3,35.5,73.1,73.1,0,0,1-22.3,28.2c-10,7.8-22.4,13.1-37.2,15.8,14.8,2.1,27.6,7.4,38.3,15.7a81.1,81.1,0,0,1,24.7,31.2,95.2,95.2,0,0,1,8.6,40.3v.8q0,29.7-13.1,52.4a88.5,88.5,0,0,1-37.6,35q-24.4,12.5-57,12.4H1480Z"/>
          <path d="M1783.1,316.7h51.2V683.3h-51.2Zm30.3,318.9h99.3q39,0,57-14.8c11.9-9.9,17.9-23.9,17.9-41.9v-.7c0-12.5-2.2-23.2-6.5-32.1s-11-15.7-20.3-20.5-21.1-7.2-35.5-7.2H1813.4V472h111.9c19,0,33.3-4.4,43-13.3s14.5-22.1,14.5-39.6-5.4-32.1-16.2-41.1-26.9-13.6-48.4-13.6H1813.4V316.7h114.2q35.6,0,59.5,12.1c15.9,8.1,27.9,19.5,35.8,34.3s11.8,32.4,11.8,52.9a86.4,86.4,0,0,1-7.3,35.5,73.1,73.1,0,0,1-22.3,28.2c-10,7.8-22.4,13.1-37.2,15.8,14.8,2.1,27.6,7.4,38.3,15.7a81.1,81.1,0,0,1,24.7,31.2,95.2,95.2,0,0,1,8.6,40.3v.8q0,29.7-13.1,52.4c-8.7,15.1-21.3,26.8-37.6,35s-35.3,12.4-57,12.4H1813.4Z"/>
          <path d="M2162.5,670.3c-19.5-11.2-34.5-27-45.2-47.4s-16-44.1-16-71V448.1q0-40.4,16-71c10.7-20.4,25.7-36.2,45.2-47.4s42.1-16.8,67.6-16.8,48.1,5.6,67.6,16.8a114.2,114.2,0,0,1,45.2,47.4q16,30.6,16,71V551.9q0,40.4-16,71a114.2,114.2,0,0,1-45.2,47.4q-29.2,16.8-67.6,16.8C2204.6,687.1,2182,681.5,2162.5,670.3Zm107.6-44.1a68.8,68.8,0,0,0,26.7-29c6.3-12.5,9.5-27,9.5-43.5V446.3c0-16.5-3.2-31-9.5-43.5a68.8,68.8,0,0,0-26.7-29c-11.5-6.8-24.9-10.2-40-10.2s-28.4,3.4-39.9,10.2a68.4,68.4,0,0,0-26.8,29c-6.3,12.5-9.4,27-9.4,43.5V553.7c0,16.5,3.1,31,9.4,43.5a68.4,68.4,0,0,0,26.8,29q17.3,10.2,39.9,10.2C2245.2,636.4,2258.6,633,2270.1,626.2Z"/>
          <path d="M2521.8,473.8l92-157.1h57.8L2550.3,515.1,2452,683.3h-57.8Zm2.3,48.4-7.8-12.6-119-192.9H2455L2543.5,466l8.3,13.6,125.3,203.7h-57.7Z"/>
          <path d="M2731.3,629.3h54v54h-54Z"/>
          <path d="M2913.6,683.3h-51.4V316.7h51.4Z"/>
          <path d="M3004.4,316.7h51.4V683.3h-51.4Zm34.8,317.7h82.9q40.7,0,62.9-21.1t22.3-59.3V446q0-38.2-22.3-59.3t-62.9-21.1h-82.9V316.7h81.4c29.4,0,54.6,5.1,75.4,15.4s36.7,25.2,47.7,44.9,16.3,43.3,16.3,71.1V551.9q0,41.7-16.3,71.1t-47.8,44.9c-21,10.3-46.1,15.4-75.5,15.4h-81.2Z"/>
        </g>
      </g>
    </g>
  </g>
</svg>
